<?xml version='1.0' encoding='utf-8'?>
<svg xmlns="http://www.w3.org/2000/svg" width="348.55" height="253.65" viewBox="0 0 348.55 253.65" preserveAspectRatio="none" overflow="visible"><path d="M 348.55 17.5216 L 348.55 236.1284 C 348.55 240.7755 346.704 245.2321 343.418 248.5181 C 340.1322 251.8038 335.6754 253.65 331.0282 253.65 L 17.522 253.65 C 12.8748 253.65 8.4181 251.8038 5.132 248.5181 C 1.846 245.2321 0 240.7755 0 236.1284 L 0 17.5216 C 0 12.8745 1.846 8.4179 5.132 5.1319 C 8.4181 1.846 12.8748 0 17.522 0 L 331.0282 0 C 335.6754 0 340.1322 1.846 343.418 5.1319 C 346.704 8.4179 348.55 12.8745 348.55 17.5216 Z" fill="#FFFFFF" fill-opacity="0.13" stroke="none" /></svg>