<?xml version='1.0' encoding='utf-8'?>
<svg xmlns="http://www.w3.org/2000/svg" width="362.66" height="576" viewBox="0 0 362.66 576" preserveAspectRatio="none" overflow="visible"><path d="M 362.66 18.6621 L 362.66 557.3379 C 362.66 562.2874 360.6937 567.0344 357.1939 570.5339 C 353.6939 574.0338 348.9469 576 343.9972 576 L 18.6631 576 C 13.7133 576 8.9661 574.0338 5.4664 570.5339 C 1.9663 567.0344 0 562.2874 0 557.3379 L 0 18.6621 C 0 13.7126 1.9663 8.9656 5.4664 5.4661 C 8.9661 1.9662 13.7133 0 18.6631 0 L 343.9972 0 C 348.9469 0 353.6939 1.9662 357.1939 5.4661 C 360.6937 8.9656 362.66 13.7126 362.66 18.6621 Z" fill="#FFFFFF" fill-opacity="0.13" stroke="#000000" stroke-width="2" stroke-opacity="0.13" stroke-linecap="round" stroke-linejoin="round" /></svg>