<?xml version='1.0' encoding='utf-8'?>
<svg xmlns="http://www.w3.org/2000/svg" width="249.68" height="206.35" viewBox="0 0 249.68 206.35" preserveAspectRatio="none" overflow="visible"><path d="M 249.68 16.4024 L 249.68 189.9474 C 249.68 194.2977 247.9519 198.4697 244.8756 201.5457 C 241.7994 204.6218 237.6272 206.35 233.2766 206.35 L 16.4034 206.35 C 12.053 206.35 7.8806 204.6218 4.8044 201.5457 C 1.7283 198.4697 0 194.2977 0 189.9474 L 0 16.4024 C 0 12.0523 1.7283 7.8802 4.8044 4.8041 C 7.8806 1.7282 12.053 0 16.4034 0 L 233.2766 0 C 237.6272 0 241.7994 1.7282 244.8756 4.8041 C 247.9519 7.8802 249.68 12.0523 249.68 16.4024 Z" fill="#FFFFFF" fill-opacity="0.08" stroke="none" /></svg>