<?xml version='1.0' encoding='utf-8'?>
<svg xmlns="http://www.w3.org/2000/svg" width="329.52" height="414.21" viewBox="0 0 329.52 414.21" preserveAspectRatio="none" overflow="visible"><path d="M 329.52 17.5209 L 329.52 396.6888 C 329.52 401.3357 327.6741 405.7922 324.3879 409.0782 C 321.102 412.364 316.6453 414.21 311.9982 414.21 L 17.5218 414.21 C 12.8747 414.21 8.418 412.364 5.1321 409.0782 C 1.8461 405.7922 0 401.3357 0 396.6888 L 0 17.5209 C 0 12.8741 1.8461 8.4176 5.1321 5.1318 C 8.418 1.846 12.8747 0 17.5218 0 L 311.9982 0 C 316.6453 0 321.102 1.846 324.3879 5.1318 C 327.6741 8.4176 329.52 12.8741 329.52 17.5209 Z" fill="#FFFFFF" fill-opacity="0.08" stroke="none" /></svg>