<svg width="13" height="14" viewBox="0 0 13 14" fill="none" xmlns="http://www.w3.org/2000/svg">
<g clip-path="url(#clip0_8019_5847)">
<path d="M5.97075 14C5.97075 13.1847 6.12904 12.4185 6.44567 11.7015C6.75237 10.9845 7.17289 10.3607 7.70717 9.83029C8.24146 9.29987 8.86974 8.8824 9.59201 8.57792C10.3143 8.26358 11.086 8.10643 11.9072 8.10643C11.086 8.10643 10.3143 7.95417 9.59201 7.64968C8.86974 7.33535 8.24146 6.91299 7.70717 6.38257C7.17289 5.85215 6.75237 5.22842 6.44567 4.51137C6.12904 3.79433 5.97075 3.02817 5.97075 2.21289C5.97075 3.02817 5.81738 3.79433 5.51067 4.51137C5.19405 5.22842 4.76861 5.85215 4.23433 6.38257C3.70004 6.91299 3.07175 7.33535 2.34949 7.64968C1.62723 7.95417 0.855492 8.10643 0.0342636 8.10643C0.855492 8.10643 1.62723 8.26358 2.34949 8.57792C3.07175 8.8824 3.70004 9.29987 4.23433 9.83029C4.76861 10.3607 5.19405 10.9845 5.51067 11.7015C5.81738 12.4185 5.97075 13.1847 5.97075 14Z" fill="url(#paint0_radial_8019_5847)"/>
</g>
<g clip-path="url(#clip1_8019_5847)">
<path d="M10.4717 4.78246C10.4717 4.45167 10.536 4.14081 10.6644 3.84988C10.7889 3.55896 10.9595 3.30588 11.1763 3.09067C11.393 2.87546 11.648 2.70607 11.941 2.58253C12.2341 2.45499 12.5472 2.39123 12.8804 2.39123C12.5472 2.39123 12.2341 2.32945 11.941 2.20591C11.648 2.07837 11.393 1.90701 11.1763 1.6918C10.9595 1.47659 10.7889 1.22351 10.6644 0.932581C10.536 0.641648 10.4717 0.330788 10.4717 0C10.4717 0.330788 10.4095 0.641648 10.2851 0.932581C10.1566 1.22351 9.98397 1.47659 9.76719 1.6918C9.55041 1.90701 9.29549 2.07837 9.00245 2.20591C8.7094 2.32945 8.39627 2.39123 8.06307 2.39123C8.39627 2.39123 8.7094 2.45499 9.00245 2.58253C9.29549 2.70607 9.55041 2.87546 9.76719 3.09067C9.98397 3.30588 10.1566 3.55896 10.2851 3.84988C10.4095 4.14081 10.4717 4.45167 10.4717 4.78246Z" fill="#7A5AF8"/>
</g>
<defs>
<radialGradient id="paint0_radial_8019_5847" cx="0" cy="0" r="1" gradientTransform="matrix(-11.9714 4.01889 32.4284 95.2045 10.7289 7.00329)" gradientUnits="userSpaceOnUse">
<stop offset="0.0671246" stop-color="#9168C0"/>
<stop offset="0.342551" stop-color="#4285F4"/>
<stop offset="0.672076" stop-color="#7A5AF8"/>
</radialGradient>
<clipPath id="clip0_8019_5847">
<rect width="11.8889" height="11.7871" fill="white" transform="matrix(-1 0 0 1 11.8887 2.21289)"/>
</clipPath>
<clipPath id="clip1_8019_5847">
<rect width="4.82377" height="4.78246" fill="white" transform="matrix(-1 0 0 1 12.8633 0)"/>
</clipPath>
</defs>
</svg>
