<svg width="12" height="12" viewBox="0 0 12 12" fill="none" xmlns="http://www.w3.org/2000/svg">
<path d="M6.20742 11.5349C6.31215 11.4479 6.38315 11.327 6.40815 11.1932C6.6093 9.99716 7.17828 8.89353 8.0359 8.0359C8.89353 7.17828 9.99716 6.6093 11.1932 6.40815C11.327 6.38315 11.4479 6.31215 11.5349 6.20742C11.6219 6.1027 11.6695 5.97086 11.6695 5.83473C11.6695 5.6986 11.6219 5.56676 11.5349 5.46204C11.4479 5.35731 11.327 5.28631 11.1932 5.26131C9.99716 5.06016 8.89353 4.49118 8.0359 3.63356C7.17828 2.77593 6.6093 1.6723 6.40815 0.47623C6.38315 0.342415 6.31215 0.221556 6.20742 0.134583C6.1027 0.0476093 5.97086 0 5.83473 0C5.6986 0 5.56676 0.0476093 5.46204 0.134583C5.35731 0.221556 5.28631 0.342415 5.26131 0.47623C5.06016 1.6723 4.49118 2.77593 3.63356 3.63356C2.77593 4.49118 1.6723 5.06016 0.47623 5.26131C0.342415 5.28631 0.221556 5.35731 0.134583 5.46204C0.0476093 5.56676 0 5.6986 0 5.83473C0 5.97086 0.0476093 6.1027 0.134583 6.20742C0.221556 6.31215 0.342415 6.38315 0.47623 6.40815C1.6723 6.6093 2.77593 7.17828 3.63356 8.0359C4.49118 8.89353 5.06016 9.99716 5.26131 11.1932C5.28631 11.327 5.35731 11.4479 5.46204 11.5349C5.56676 11.6219 5.6986 11.6695 5.83473 11.6695C5.97086 11.6695 6.1027 11.6219 6.20742 11.5349Z" fill="#E6E6E6"/>
</svg>
