<svg preserveAspectRatio="none" width="100%" height="100%" overflow="visible" style="display: block;" viewBox="0 0 17.6 17.6" fill="none" xmlns="http://www.w3.org/2000/svg">
<g id="Frame">
<path id="Vector" d="M11.3667 12.8335C12.1 13.9335 12.7111 14.4224 13.2 14.6668C14.1778 14.4224 16.1333 13.3468 16.1333 11.0002C16.1333 8.6535 15.1556 5.37794 14.6667 4.0335C13.2 3.1535 11.6111 2.9335 11 2.9335L10.4119 4.10971C9.83658 3.87735 9.0976 3.85337 8.80001 3.87042C8.50243 3.85337 7.76345 3.87735 7.18812 4.10971L6.60001 2.9335C5.98891 2.9335 4.40001 3.1535 2.93335 4.0335C2.44446 5.37794 1.46668 8.6535 1.46668 11.0002C1.46668 13.3468 3.42224 14.4224 4.40001 14.6668C4.88891 14.4224 5.50001 13.9335 6.23335 12.8335" stroke="var(--stroke-0, #7A5AF8)" stroke-width="1.1" stroke-linecap="round" stroke-linejoin="round"/>
<path id="Vector_2" d="M12.7345 8.43278C12.7345 9.24282 12.1599 9.89945 11.4511 9.89945C10.7424 9.89945 10.1678 9.24282 10.1678 8.43278C10.1678 7.62274 10.7424 6.96611 11.4511 6.96611C12.1599 6.96611 12.7345 7.62274 12.7345 8.43278Z" stroke="var(--stroke-0, #7A5AF8)" stroke-width="1.1" stroke-linecap="round" stroke-linejoin="round"/>
<path id="Vector_3" d="M7.33335 8.43278C7.33335 9.24282 6.75878 9.89945 6.05001 9.89945C5.34125 9.89945 4.76668 9.24282 4.76668 8.43278C4.76668 7.62274 5.34125 6.96611 6.05001 6.96611C6.75878 6.96611 7.33335 7.62274 7.33335 8.43278Z" stroke="var(--stroke-0, #7A5AF8)" stroke-width="1.1" stroke-linecap="round" stroke-linejoin="round"/>
<path id="Vector_4" d="M12.8333 12.0998C12.0283 12.7574 10.5235 13.1998 8.80001 13.1998C7.07654 13.1998 5.57177 12.7574 4.76668 12.0998" stroke="var(--stroke-0, #7A5AF8)" stroke-width="1.1" stroke-linecap="round" stroke-linejoin="round"/>
</g>
</svg>
