<svg preserveAspectRatio="none" width="100%" height="100%" overflow="visible" style="display: block;" viewBox="0 0 17.6 17.6" fill="none" xmlns="http://www.w3.org/2000/svg">
<g id="Frame" clip-path="url(#clip0_0_14)">
<path id="Vector" d="M2.67187 11.5297C2.69366 11.6108 2.71124 11.6927 2.72362 11.7758C2.71121 11.6925 2.69361 11.6106 2.67187 11.5297ZM1.6621 10.2045C1.70758 10.2312 1.75246 10.2586 1.79589 10.2885C1.75239 10.2586 1.7075 10.2311 1.6621 10.2045ZM0.830069 9.91934C0.923716 9.93136 1.0161 9.95008 1.10741 9.97402C1.01638 9.95015 0.924006 9.9314 0.830069 9.91934ZM7.15038 13.1996L7.15722 13.017C7.1924 12.5939 7.35026 12.1886 7.61327 11.852L8.20214 11.098L7.25487 10.9682C6.46469 10.8597 5.74052 10.4692 5.21581 9.86855C4.69115 9.26775 4.40149 8.49724 4.40038 7.69961V7.15566C4.40629 6.56619 4.56241 5.98748 4.85546 5.47598L4.9746 5.26895L4.90429 5.04043C4.75867 4.5707 4.71145 4.07501 4.76659 3.58633C4.82177 3.09778 4.97804 2.62595 5.2246 2.20059V2.19961H5.22655C5.78114 2.19851 6.32814 2.32761 6.82421 2.57559C7.32048 2.82372 7.752 3.18472 8.08398 3.6293L8.24901 3.85H10.4512L10.6152 3.6293C10.9471 3.18481 11.3788 2.82372 11.875 2.57559C12.3712 2.32748 12.9188 2.19848 13.4736 2.19961H13.4756V2.20059C13.7221 2.62589 13.8775 3.09782 13.9326 3.58633C13.9876 4.07495 13.9407 4.56986 13.7949 5.03945L13.7246 5.26895L13.8437 5.47695C14.1371 5.98787 14.294 6.56558 14.2998 7.15469V7.69961L14.2861 7.99648C14.2229 8.68674 13.9436 9.34268 13.4844 9.86855C12.9597 10.4693 12.2355 10.8597 11.4453 10.9682L10.4971 11.098L11.0859 11.852C11.3866 12.2367 11.5501 12.7113 11.5498 13.1996V15.9496H7.15038V13.1996Z" stroke="var(--stroke-0, #191919)" stroke-width="1.1"/>
</g>
<defs>
<clipPath id="clip0_0_14">
<rect width="17.6" height="17.6" fill="white"/>
</clipPath>
</defs>
</svg>
